
<svg id="ews-logo-black" data-name="EWS White Logo" xmlns="http://www.w3.org/2000/svg" viewBox="0 0 376.95 118.41">
  <defs>
    <style>
      .element-color {
        fill: #ffffff;
      }
    </style>
  </defs>
  <g>
    <path class="element-color" d="M151,362.54A45.67,45.67,0,0,1,131,358.39a41.5,41.5,0,0,1-14.35-11.17A47.86,47.86,0,0,1,108,331a64.55,64.55,0,0,1-2.87-19.35,83.16,83.16,0,0,1,1.34-14.47,84.49,84.49,0,0,1,4.09-14.95,78.27,78.27,0,0,1,6.9-14,55.61,55.61,0,0,1,9.7-11.72,44.78,44.78,0,0,1,12.45-8,38,38,0,0,1,15.32-3,36,36,0,0,1,12.7,2.19,31.15,31.15,0,0,1,10.19,6.17,27.9,27.9,0,0,1,6.78,9.58A31.39,31.39,0,0,1,187,276a33.92,33.92,0,0,1-3.73,15.14A55.08,55.08,0,0,1,173,305.41a73,73,0,0,1-15.69,12,83.59,83.59,0,0,1-19.71,8.17,39.18,39.18,0,0,0,3.6,5.5,16.75,16.75,0,0,0,3.6,3.42,11.88,11.88,0,0,0,3.85,1.7,18.06,18.06,0,0,0,4.33.49,45.33,45.33,0,0,0,15.44-2.93,100.67,100.67,0,0,0,15.81-7.32,133.64,133.64,0,0,0,14.53-9.58A125.72,125.72,0,0,0,210.35,307l15.75,16.36A160.94,160.94,0,0,1,203.27,343q-5.25,3.66-11.29,7.2a102.59,102.59,0,0,1-12.69,6.29,87.29,87.29,0,0,1-13.8,4.39A64,64,0,0,1,151,362.54Zm-16.24-57.37a24.11,24.11,0,0,0,9.58-2.26,42.89,42.89,0,0,0,9.65-5.8,40.25,40.25,0,0,0,7.5-7.69,13.64,13.64,0,0,0,3.06-8.05,18.14,18.14,0,0,0-2-9q-2-3.54-4.94-3.54a19,19,0,0,0-9,2,19.47,19.47,0,0,0-6.23,5.06,26.43,26.43,0,0,0-4,7.08,48.09,48.09,0,0,0-2.32,8,59.84,59.84,0,0,0-1,7.81Q134.79,302.48,134.79,305.17Z" transform="translate(-105.13 -245.23)"/>
    <path class="element-color" d="M258.94,302.24a169.51,169.51,0,0,1-8.37,24.35,114.35,114.35,0,0,1-10.31,19.05,53.6,53.6,0,0,1-11.35,12.45q-5.86,4.46-11.48,4.45-9.52,0-14-14T199,307v-6.9q0-3,.12-6t.37-6.47c.16-2.32.36-5.1.61-8.36.08-.81.26-2.22.55-4.21s.73-4.25,1.34-6.78a68.7,68.7,0,0,1,2.44-7.87,32.35,32.35,0,0,1,3.91-7.45,22.23,22.23,0,0,1,5.61-5.55,13.44,13.44,0,0,1,7.76-2.2l2.92.25q5.37,0,8.24,2.13a6.73,6.73,0,0,1,2.87,5.68l-8.54,66,1.59-.12q5.37-12.45,9.33-22.77T245.45,278q3.36-8.18,6.47-14.28a46.18,46.18,0,0,1,6.77-10.14,24.4,24.4,0,0,1,8.24-6,27,27,0,0,1,10.93-2c3.58,0,6.32.71,8.24,2.13a6.75,6.75,0,0,1,2.87,5.68l-10,66,1.71-.12L309.84,254q1.47-3.42,6.35-6a24.13,24.13,0,0,1,11.59-2.63q7,0,11.23,2.87t4.28,7.39a25.86,25.86,0,0,1-1.16,7.32c-.78,2.61-1.61,5-2.51,7.27s-1.75,4.15-2.56,5.73l-1.34,2.63c-1.79,3.25-3.44,6.27-4.94,9s-2.83,5.21-4,7.33q-2.08,3.66-3.66,6.83a35.16,35.16,0,0,0,4.39,8.55,29.92,29.92,0,0,0,5.74,5.86,12.81,12.81,0,0,0,8.18,2.68,25,25,0,0,0,9.27-2.14,78.85,78.85,0,0,0,9.89-4.82q5.49-3,11.23-7v28.69a81.64,81.64,0,0,1-16.66,8.18,49.29,49.29,0,0,1-16.54,3,46.31,46.31,0,0,1-11.78-1.46,27.79,27.79,0,0,1-9.77-4.64,22.72,22.72,0,0,1-6.71-8.24,28.58,28.58,0,0,1-2.63-12.27,186.68,186.68,0,0,1-8.66,17.88,96.83,96.83,0,0,1-9.28,14,45.59,45.59,0,0,1-9.64,9.16,17.42,17.42,0,0,1-9.77,3.29c-1.14,0-2.14-.87-3-2.62a29.13,29.13,0,0,1-2.14-7.08c-.57-3-1-6.43-1.4-10.38s-.65-8.12-.85-12.51-.35-8.91-.43-13.55-.12-9.16-.12-13.55Z" transform="translate(-105.13 -245.23)"/>
    <path class="element-color" d="M360.74,315.67q6.84-5.87,11.11-9.77t7.33-7.14a81.58,81.58,0,0,0,5.55-6.53l5.92-7.81q3.42-4.51,8.3-11.05t12.7-16.3a41.92,41.92,0,0,1,3.54-4.27,27.14,27.14,0,0,1,4.33-3.72,22.8,22.8,0,0,1,5.25-2.69,18.78,18.78,0,0,1,6.41-1,24.9,24.9,0,0,1,9,1.29,11.11,11.11,0,0,1,4.64,3.11,7.6,7.6,0,0,1,1.71,3.84,30.2,30.2,0,0,1,.24,3.48,12,12,0,0,1-2.32,6.47,67.65,67.65,0,0,1-5.12,6.84q-2.82,3.3-5.31,6a12.58,12.58,0,0,0-2.87,4.09,39.55,39.55,0,0,0,.55,6.9,50.15,50.15,0,0,0,1.46,6.1c.61,2,1.24,4.11,1.89,6.35s1.29,4.82,1.9,7.75a93,93,0,0,1,1.46,10.13q.56,5.75.55,13.55a73.52,73.52,0,0,1,9.46-5.31L459,321q5.49-2.57,11.29-5.68A91.49,91.49,0,0,0,482,307.85l.12,27.35a113.2,113.2,0,0,1-17.52,11,172.32,172.32,0,0,1-20.87,9,159,159,0,0,1-22.1,6.16,106.58,106.58,0,0,1-21.17,2.26A64,64,0,0,1,387,362.3a35.22,35.22,0,0,1-10.93-4.21,23.3,23.3,0,0,1-7.63-7.51,25.14,25.14,0,0,1-3.54-11.23,25.07,25.07,0,0,1-3.35.49q-1.65.12-3.24.12-1.95,0-3.66-.12a6,6,0,0,1-2.93-.92,5.42,5.42,0,0,1-1.95-2.56,13.7,13.7,0,0,1-.74-5.07,10.54,10.54,0,0,1,1.47-5.43,22,22,0,0,1,3.42-4.46,36,36,0,0,1,3.9-3.41C359.11,317,360.09,316.24,360.74,315.67Zm15.63,15.62a4.86,4.86,0,0,1,3.23,1.83c1.18,1.22,2.55,2.57,4.09,4a30.86,30.86,0,0,0,5.37,4,13.3,13.3,0,0,0,7,1.83,17.27,17.27,0,0,0,7.88-1.59,13.15,13.15,0,0,0,4.94-4.21,16.48,16.48,0,0,0,2.56-6.1,35.05,35.05,0,0,0,.73-7.26,55.1,55.1,0,0,0-.42-6.72c-.29-2.28-.65-4.45-1.1-6.53s-.94-4-1.47-5.86-1-3.4-1.4-4.7Z" transform="translate(-105.13 -245.23)"/>
  </g>
</svg>